<svg width="20" height="20" viewBox="0 0 20 20" fill="none" xmlns="http://www.w3.org/2000/svg">
<circle cx="10" cy="10" r="10" fill="white"/>
<path d="M10 4.16666C10.9283 4.16666 11.8185 4.53541 12.4749 5.19178C13.1313 5.84816 13.5 6.7384 13.5 7.66666V8.24999H15.8333V9.41666H15.1526L14.711 14.7151C14.6989 14.8608 14.6324 14.9967 14.5248 15.0958C14.4172 15.1949 14.2763 15.2499 14.13 15.25H5.87001C5.72373 15.2499 5.58283 15.1949 5.47522 15.0958C5.36761 14.9967 5.30115 14.8608 5.28901 14.7151L4.84684 9.41666H4.16667V8.24999H6.50001V7.66666C6.50001 6.7384 6.86875 5.84816 7.52513 5.19178C8.18151 4.53541 9.07175 4.16666 10 4.16666ZM10.5833 10.5833H9.41667V12.9167H10.5833V10.5833ZM8.25 10.5833H7.08334V12.9167H8.25V10.5833ZM12.9167 10.5833H11.75V12.9167H12.9167V10.5833ZM10 5.33332C9.40136 5.33332 8.82562 5.56341 8.39186 5.976C7.95811 6.38858 7.69952 6.9521 7.66959 7.54999L7.66667 7.66666V8.24999H12.3333V7.66666C12.3333 7.06801 12.1033 6.49227 11.6907 6.05852C11.2781 5.62476 10.7146 5.36617 10.1167 5.33624L10 5.33332Z" fill="#7ECD19"/>
</svg>
