<svg width="168" height="31" viewBox="0 0 168 31" fill="none" xmlns="http://www.w3.org/2000/svg">
<g clip-path="url(#clip0_1874_5461)">
<path d="M22.4739 25.0788C25.812 22.4984 27.9522 18.4383 27.9155 13.8775C27.8543 6.30815 21.7063 0.107032 14.1568 0.0010966C6.35706 -0.107069 0 6.19775 0 13.9924C0 18.5108 2.13682 22.5285 5.45272 25.0866C5.84761 25.391 5.68298 26.0255 5.19132 26.1035C2.02558 26.6087 0 27.3803 0 28.2457C0 29.7667 6.24917 31 13.9577 31C21.6663 31 27.9155 29.7667 27.9155 28.2468C27.9155 27.3815 25.891 26.6087 22.7241 26.1047C22.2269 26.0244 22.0745 25.3876 22.4739 25.0788Z" fill="black"/>
<path d="M43.4038 5.47406V27.9424H39.1635V5.47406H43.4038Z" fill="black"/>
<path d="M61.8621 20.8079H49.5951C49.6964 22.0223 50.1202 22.9746 50.8677 23.6615C51.614 24.3495 52.534 24.6941 53.6241 24.6941C55.1991 24.6941 56.3193 24.0161 56.9856 22.6601H61.5595C61.0746 24.2793 60.1457 25.6107 58.7731 26.6533C57.3994 27.6959 55.7142 28.2167 53.7153 28.2167C52.1001 28.2167 50.6507 27.8576 49.3693 27.1384C48.0868 26.4203 47.0868 25.4033 46.3704 24.0863C45.653 22.7705 45.2948 21.2529 45.2948 19.5322C45.2948 17.7916 45.6474 16.2639 46.3549 14.9469C47.0612 13.6311 48.0501 12.6197 49.3226 11.9105C50.5951 11.2024 52.059 10.8478 53.7142 10.8478C55.3093 10.8478 56.7375 11.1923 58 11.8804C59.2614 12.5684 60.2414 13.5452 60.9377 14.8109C61.6341 16.0765 61.9833 17.5284 61.9833 19.1687C61.9833 19.7753 61.9422 20.3217 61.8621 20.8079ZM57.5918 17.9532C57.5718 16.8604 57.178 15.9851 56.4105 15.3272C55.643 14.6693 54.7041 14.3403 53.594 14.3403C52.544 14.3403 51.6608 14.6592 50.9433 15.2971C50.2258 15.9349 49.7876 16.8203 49.6263 17.9544H57.5918V17.9532Z" fill="black"/>
<path d="M81.0856 27.4718C79.9955 26.9767 79.1324 26.3032 78.4961 25.4523C77.8598 24.6026 77.5117 23.6615 77.4505 22.6289H81.7208C81.802 23.2768 82.119 23.8131 82.6752 24.238C83.2303 24.6628 83.9221 24.8758 84.7497 24.8758C85.5573 24.8758 86.188 24.7141 86.6429 24.3896C87.0968 24.0663 87.3248 23.6514 87.3248 23.1452C87.3248 22.5988 87.0467 22.1884 86.4917 21.9152C85.9366 21.642 85.0534 21.3432 83.8409 21.0198C82.5884 20.7165 81.564 20.402 80.7675 20.0786C79.97 19.7552 79.2836 19.259 78.7075 18.5911C78.1324 17.9231 77.8443 17.0232 77.8443 15.8892C77.8443 14.9581 78.1112 14.1083 78.6474 13.3389C79.1824 12.5695 79.9499 11.9629 80.9488 11.5168C81.9488 11.0719 83.1246 10.8489 84.4772 10.8489C86.4761 10.8489 88.0712 11.3496 89.2625 12.352C90.4527 13.3545 91.1101 14.7049 91.2302 16.4055H87.1724C87.1112 15.7375 86.8343 15.2056 86.3393 14.8109C85.8443 14.4161 85.1835 14.2187 84.3548 14.2187C83.5873 14.2187 82.9967 14.3604 82.5829 14.6436C82.1691 14.9268 81.9622 15.3216 81.9622 15.8278C81.9622 16.3943 82.2447 16.8247 82.8098 17.118C83.3749 17.4113 84.2536 17.7101 85.4449 18.0134C86.6563 18.3168 87.6552 18.6312 88.4438 18.9546C89.2314 19.278 89.9121 19.7798 90.4883 20.4578C91.0634 21.1357 91.3615 22.0312 91.3826 23.1452C91.3826 24.1164 91.1146 24.9873 90.5795 25.7568C90.0445 26.5262 89.277 27.1283 88.2781 27.5632C87.2781 27.9981 86.1123 28.2156 84.7797 28.2156C83.4071 28.2167 82.1757 27.968 81.0856 27.4718Z" fill="black"/>
<path d="M73.1591 14.6135V11.1221H69.4038V6.96274H65.1324V11.1221H63.1335V14.6146H65.1324V27.9279C65.1324 27.939 65.1335 27.9491 65.1335 27.9613H69.4038C69.4038 27.9602 69.4038 27.9591 69.4038 27.9591V14.6135H73.1591Z" fill="black"/>
<path d="M76.0767 8.82386C77.6881 8.82386 78.9944 7.51432 78.9944 5.89893C78.9944 4.28353 77.6881 2.974 76.0767 2.974C74.4653 2.974 73.1591 4.28353 73.1591 5.89893C73.1591 7.51432 74.4653 8.82386 76.0767 8.82386Z" fill="black"/>
<path d="M124.263 11.1221L119.356 27.9435H114.783L111.724 16.1925L108.665 27.9435H104.06L99.1235 11.1221H103.425L106.393 23.9358L109.603 11.1221H114.086L117.236 23.9046L120.204 11.1221H124.263Z" fill="black"/>
<path d="M130.395 11.1221V27.9435H126.155V11.1221H130.395Z" fill="black"/>
<path d="M147.573 12.7769C148.804 14.0425 149.42 15.8089 149.42 18.0748V27.9424H145.18V18.6513C145.18 17.3154 144.847 16.2884 144.18 15.5691C143.514 14.851 142.605 14.4908 141.454 14.4908C140.283 14.4908 139.359 14.8499 138.683 15.5691C138.007 16.2873 137.669 17.3154 137.669 18.6513V27.9424H133.428V11.1221H137.669V13.2174C138.234 12.4892 138.956 11.9171 139.834 11.5023C140.713 11.0875 141.676 10.8801 142.726 10.8801C144.725 10.879 146.34 11.5112 147.573 12.7769Z" fill="black"/>
<path d="M167.879 20.8079H155.612C155.713 22.0223 156.137 22.9746 156.884 23.6615C157.631 24.3495 158.551 24.6941 159.641 24.6941C161.216 24.6941 162.336 24.0161 163.002 22.6601H167.576C167.091 24.2793 166.162 25.6107 164.79 26.6533C163.416 27.6959 161.731 28.2167 159.732 28.2167C158.117 28.2167 156.667 27.8576 155.386 27.1384C154.103 26.4203 153.103 25.4033 152.387 24.0863C151.67 22.7705 151.311 21.2529 151.311 19.5322C151.311 17.7916 151.664 16.2639 152.372 14.9469C153.078 13.6311 154.067 12.6197 155.339 11.9105C156.612 11.2024 158.076 10.8478 159.731 10.8478C161.326 10.8478 162.754 11.1923 164.017 11.8804C165.278 12.5684 166.258 13.5452 166.954 14.8109C167.651 16.0765 168 17.5284 168 19.1687C168 19.7753 167.959 20.3217 167.879 20.8079ZM163.608 17.9532C163.588 16.8604 163.195 15.9851 162.427 15.3272C161.66 14.6693 160.721 14.3403 159.611 14.3403C158.561 14.3403 157.677 14.6592 156.96 15.2971C156.242 15.9349 155.804 16.8203 155.643 17.9544H163.608V17.9532Z" fill="black"/>
<path d="M128.275 8.82386C129.886 8.82386 131.192 7.51432 131.192 5.89893C131.192 4.28353 129.886 2.974 128.275 2.974C126.663 2.974 125.357 4.28353 125.357 5.89893C125.357 7.51432 126.663 8.82386 128.275 8.82386Z" fill="black"/>
</g>
<defs>
<clipPath id="clip0_1874_5461">
<rect width="168" height="31" fill="white"/>
</clipPath>
</defs>
</svg>
