<svg width="61" height="61" viewBox="0 0 61 61" fill="none" xmlns="http://www.w3.org/2000/svg">
<rect width="61" height="61" rx="23" fill="#CDDE74"/>
<g clip-path="url(#clip0_1874_5491)">
<path d="M41.3721 41.4693C45.4373 38.3342 48.0442 33.4014 48 27.8601C47.9258 18.6642 40.4384 11.1291 31.2425 11.001C21.7418 10.8693 14 18.5308 14 28.0005C14 33.4907 16.6024 38.3713 20.6412 41.4799C21.1217 41.85 20.9221 42.6203 20.3232 42.7157C16.4664 43.3279 14 44.266 14 45.3181C14 47.1652 21.6111 48.6634 31.0004 48.6634C40.3889 48.6634 48.0009 47.1652 48.0009 45.3181C48.0009 44.2669 45.5345 43.3279 41.6786 42.7148C41.0717 42.6185 40.8853 41.8447 41.3721 41.4693Z" fill="black"/>
<path d="M24.344 23.244H24.752V25.584C24.62 25.596 24.476 25.602 24.344 25.602V23.244ZM25.46 23.244H25.814V22.614H23.3V23.244H23.636V25.62C23.48 25.62 23.336 25.62 23.204 25.62L23.288 26.262C23.972 26.262 25.088 26.244 25.946 26.058L25.892 25.488C25.76 25.506 25.61 25.518 25.46 25.536V23.244ZM26.204 24.006H25.676V24.696H26.204V27.264H26.942V22.104H26.204V24.006ZM27.302 21.99V27.522H28.052V21.99H27.302Z" fill="#CDDE74"/>
<path d="M30.1695 25.602C29.7675 25.602 29.4975 25.164 29.4975 24.342C29.4975 23.526 29.7675 23.088 30.1695 23.088C30.5775 23.088 30.8475 23.526 30.8475 24.342C30.8475 25.164 30.5775 25.602 30.1695 25.602ZM32.5035 21.984V23.976H31.5795C31.4715 22.98 30.9135 22.374 30.1695 22.374C29.3475 22.374 28.7415 23.13 28.7415 24.342C28.7415 25.56 29.3475 26.322 30.1695 26.322C30.9375 26.322 31.5015 25.674 31.5855 24.618H32.5035V27.528H33.2955V21.984H32.5035Z" fill="#CDDE74"/>
<path d="M38.6471 21.99H37.8491V25.344H38.6471V21.99ZM37.3931 24.33C36.6731 24.45 36.0311 24.48 35.1191 24.486V24H36.8771V22.314H34.3331V22.944H36.0971V23.412H34.3391V25.122H34.8251C35.9231 25.122 36.6611 25.098 37.4831 24.96L37.3931 24.33ZM36.7871 26.91C36.0671 26.91 35.6891 26.778 35.6891 26.484C35.6891 26.196 36.0671 26.064 36.7871 26.064C37.5131 26.064 37.8911 26.196 37.8911 26.484C37.8911 26.778 37.5131 26.91 36.7871 26.91ZM36.7871 25.446C35.6171 25.446 34.8971 25.83 34.8971 26.484C34.8971 27.138 35.6171 27.522 36.7871 27.522C37.9631 27.522 38.6831 27.138 38.6831 26.484C38.6831 25.83 37.9631 25.446 36.7871 25.446Z" fill="#CDDE74"/>
<path d="M24.572 32.136H25.142V34.572C24.95 34.578 24.758 34.584 24.572 34.59V32.136ZM25.904 32.136H26.378V31.5H23.33V32.136H23.804V34.608C23.588 34.608 23.378 34.608 23.186 34.608L23.27 35.256C24.212 35.256 25.466 35.232 26.588 35.034L26.54 34.458C26.336 34.488 26.12 34.5 25.904 34.518V32.136ZM28.388 33.078H27.584V30.996H26.792V36.522H27.584V33.732H28.388V33.078Z" fill="#CDDE74"/>
<path d="M33.1275 33.84H30.0495V33.222H32.9595V32.61H30.0495V32.028H33.0855V31.392H29.2455V34.464H33.1275V33.84ZM28.6575 35.238V35.88H33.6615V35.238H28.6575Z" fill="#CDDE74"/>
<path d="M35.1251 31.578H34.3391V35.232H34.8071C35.6231 35.232 36.4631 35.184 37.3571 35.004L37.2671 34.356C36.5291 34.5 35.8211 34.554 35.1251 34.572V31.578ZM37.9031 30.984V32.694H36.4151V33.336H37.9031V36.534H38.6951V30.984H37.9031Z" fill="#CDDE74"/>
</g>
<defs>
<clipPath id="clip0_1874_5491">
<rect width="34" height="37.6633" fill="white" transform="translate(14 11)"/>
</clipPath>
</defs>
</svg>
